<svg xmlns="http://www.w3.org/2000/svg" viewBox="0 0 16.03 8.22"><g id="Layer_2" data-name="Layer 2"><g id="Layer_1-2" data-name="Layer 1"><path d="M0,.17A14.44,14.44,0,0,1,2.22,0,4.6,4.6,0,0,1,5.49,1a3.71,3.71,0,0,1,1.14,2.9A4.28,4.28,0,0,1,5.47,7.05,5,5,0,0,1,1.9,8.22,16.77,16.77,0,0,1,0,8.12ZM1,7.32a7.79,7.79,0,0,0,1.06.06A3.11,3.11,0,0,0,5.54,4C5.55,2,4.47.83,2.27.83A6,6,0,0,0,1,.94Z" style="fill:#fff"/><path d="M14.8,4.59c-.06-1.12-.13-2.48-.12-3.49h0c-.28.95-.61,2-1,3.07L12.2,8.1h-.79L10.1,4.25c-.38-1.14-.7-2.19-.93-3.15h0c0,1-.08,2.37-.15,3.58L8.77,8.14h-1L8.34.06H9.67L11.05,4c.34,1,.61,1.88.82,2.72h0c.21-.81.49-1.7.85-2.72L14.19.06h1.33L16,8.14H15Z" style="fill:#fff"/></g></g></svg>