<svg version="1.1" id="Layer_1" xmlns="http://www.w3.org/2000/svg" xmlns:xlink="http://www.w3.org/1999/xlink" x="0px" y="0px"
	 viewBox="0 0 512 512" style="enable-background:new 0 0 512 512;" xml:space="preserve">
<g>
	<path d="M440.4,0H71.7C46.3,0,25.6,20.6,25.6,46.1v419.8c0,25.5,20.7,46.1,46.1,46.1h368.7c25.4,0,46.1-20.6,46.1-46.1
		V46.1C486.4,20.6,465.8,0,440.4,0z M460.8,465.9c0,11.3-9.2,20.5-20.5,20.5H71.7c-11.3,0-20.5-9.2-20.5-20.5V46.1
		c0-11.3,9.2-20.5,20.5-20.5h368.7c11.3,0,20.5,9.2,20.5,20.5V465.9z M140.8,435.2l57.6-51.2l-57.6-51.2V435.2z M348.9,227.7
		c-10.4-10.4-29.3-22.9-60.9-22.9c-34.7,0-70.5,9-96,17.3V76.8h-51.2v222l36.2-16.4c0.6-0.3,58.9-26.4,111-26.4
		c26,0,31.7,14.3,32,26.3v152.9h51.2V281.6C371.3,278.3,370.9,249.9,348.9,227.7 M281.6,160h51.2c23.1-26.2,34.9-54.1,38.4-83.2
		h-51.2C314.3,105.8,301.7,133.6,281.6,160"/>
</g>
</svg>
